<?xml version="1.0" encoding="utf-8"?>
<!-- Generator: Adobe Illustrator 22.1.0, SVG Export Plug-In . SVG Version: 6.00 Build 0)  -->
<svg version="1.1" id="Capa_1" xmlns="http://www.w3.org/2000/svg" xmlns:xlink="http://www.w3.org/1999/xlink" x="0px" y="0px"
	 viewBox="0 0 50 62.5" style="enable-background:new 0 0 50 62.5;" xml:space="preserve">
<path d="M23.9,37c0,0.9,0.7,1.6,1.6,1.6c0.9,0,1.6-0.7,1.6-1.6c0-0.9-0.7-1.6-1.6-1.6C24.6,35.4,23.9,36.2,23.9,37z M26.1,37
	c0,0.3-0.3,0.6-0.6,0.6s-0.6-0.3-0.6-0.6c0-0.3,0.3-0.6,0.6-0.6C25.8,36.4,26.1,36.7,26.1,37z"/>
<path d="M15.8,22.3c0-0.9-0.7-1.6-1.6-1.6s-1.6,0.7-1.6,1.6s0.7,1.6,1.6,1.6S15.8,23.2,15.8,22.3z M13.5,22.3c0-0.4,0.3-0.6,0.6-0.6
	s0.6,0.3,0.6,0.6s-0.3,0.6-0.6,0.6S13.5,22.6,13.5,22.3z"/>
<path d="M24.7,6.3c0.9,0,1.6-0.7,1.6-1.6S25.6,3,24.7,3s-1.6,0.7-1.6,1.6S23.8,6.3,24.7,6.3z M24.7,4c0.4,0,0.6,0.3,0.6,0.6
	s-0.3,0.6-0.6,0.6S24.1,5,24.1,4.6S24.4,4,24.7,4z"/>
<path d="M40.6,19.5c0,0,0-0.1,0-0.1c0,0,0,0,0-0.1c0,0,0-0.1,0-0.1c0,0,0,0,0,0l-1.2-4.7c0,0,0,0,0,0c0,0,0-0.1,0-0.1
	c0,0,0,0-0.1-0.1c0,0,0,0-0.1-0.1c0,0,0,0-0.1,0c0,0-0.1,0-0.1,0c0,0-0.1,0-0.1,0c0,0,0,0,0,0c0,0,0,0,0,0l-4.1,0.1
	c-0.1-0.1-0.2-0.3-0.3-0.4c-0.5-0.5-1.2-0.8-1.9-0.7l-3.6-4.5c0,0,0-0.1,0-0.1c0-2.1-1.7-3.9-3.9-3.9s-3.9,1.7-3.9,3.9
	c0,0.4,0.1,0.8,0.2,1.1L12,22.5c-1.2,0.8-2,2.1-2,3.7c0,2.4,1.9,4.3,4.2,4.4l7.5,11.4v1.5L18.6,49h-1.5C16,49,15,49.9,15,51.1
	c0,1.1,0.9,2.1,2.1,2.1h17.5c1.1,0,2.1-0.9,2.1-2.1c0-1.1-0.9-2.1-2.1-2.1h-1.5l-3.2-5.6v-1.7c0-1.1-0.4-2-1-2.8
	c0-0.1,0-0.1-0.1-0.2l-10-12c0-0.2,0.1-0.4,0.1-0.5c0-0.4-0.1-0.8-0.2-1.1l7.1-12.8c0.1,0,0.2-0.1,0.3-0.1l3.9,3.3
	c0,0.1,0,0.1,0,0.2c0,0.7,0.3,1.3,0.7,1.8c0.1,0.1,0.3,0.2,0.4,0.3l-0.2,4.1c0,0,0,0,0,0c0,0,0,0.1,0,0.1c0,0,0,0.1,0,0.1
	c0,0,0,0.1,0,0.1c0,0,0,0,0.1,0.1c0,0,0,0,0.1,0.1c0,0,0.1,0,0.1,0c0,0,0,0,0,0l4.7,1.3c0,0,0.1,0,0.1,0c0.1,0,0.2,0,0.3-0.1
	c0,0,0,0,0.1,0c0,0,0.1,0,0.1-0.1c0,0,0.1-0.1,0.1-0.2c0,0,0,0,0,0c0,0,0,0,0,0c0,0,0-0.1,0-0.1c0,0,0,0,0-0.1c0,0,0-0.1,0-0.1
	c0,0,0,0,0-0.1c0,0,0,0,0-0.1c0,0,0-0.1-0.1-0.1c0,0,0,0,0,0l-3-2.2l0.6-2.8c0.1-0.1,0.2-0.1,0.3-0.2s0.2-0.2,0.2-0.3l2.9-0.6l2.2,3
	c0,0,0,0,0.1,0.1c0,0,0,0,0.1,0.1c0.1,0.1,0.2,0.1,0.3,0.1c0,0,0.1,0,0.1,0c0.1,0,0.1,0,0.2-0.1c0,0,0,0,0,0c0,0,0,0,0,0
	c0,0,0.1-0.1,0.1-0.1C40.5,19.6,40.5,19.6,40.6,19.5C40.6,19.6,40.6,19.5,40.6,19.5z M25.1,5.6c1.6,0,2.9,1.3,2.9,2.9
	s-1.3,2.9-2.9,2.9c-1.6,0-2.9-1.3-2.9-2.9S23.5,5.6,25.1,5.6z M11.1,26.1c0-1.9,1.5-3.4,3.4-3.4c1.9,0,3.4,1.5,3.4,3.4
	c0,1.9-1.5,3.4-3.4,3.4C12.6,29.6,11.1,28,11.1,26.1z M28.9,41.7V43h-6v-1.3c0-1.8,1.4-3.3,3-3.3S28.9,39.8,28.9,41.7z M35.7,51.1
	c0,0.6-0.5,1.1-1.1,1.1H17.1c-0.6,0-1.1-0.5-1.1-1.1c0-0.6,0.5-1.1,1.1-1.1h1.8h13.8c0,0,0,0,0,0h1.8C35.2,50,35.7,50.5,35.7,51.1z
	 M19.8,49l2.8-5h6.5l2.8,5H19.8z M26.5,37.4c-0.2,0-0.4-0.1-0.6-0.1c-1.8,0-3.3,1.3-3.8,3l-6.6-9.9c1.4-0.3,2.6-1.3,3.1-2.6
	L26.5,37.4z M14.5,21.7c-0.2,0-0.5,0-0.7,0.1l8.1-11.1c0.6,0.9,1.7,1.6,2.8,1.7l-6.4,11.5C17.5,22.6,16.1,21.7,14.5,21.7z
	 M27.2,11.7c0.7-0.4,1.2-1.1,1.5-1.8l2.8,3.5c-0.2,0.1-0.4,0.2-0.6,0.4c-0.2,0.2-0.3,0.4-0.4,0.6L27.2,11.7z M31.6,14.5
	c0.3-0.3,0.7-0.4,1.1-0.4c0.4,0,0.8,0.2,1.1,0.5c0.6,0.6,0.6,1.6,0,2.2c-0.6,0.6-1.6,0.6-2.2,0c-0.3-0.3-0.5-0.7-0.4-1.1
	C31.1,15.2,31.3,14.8,31.6,14.5z M32.5,20.6C32.5,20.7,32.5,20.7,32.5,20.6c0,0.1,0,0.1,0,0.2c0,0,0,0.1,0,0.1c0,0,0,0.1,0,0.1
	c0,0,0,0.1,0.1,0.1c0,0,0,0,0,0.1l1.1,0.8l-1.7-0.5l0.2-3.3c0.1,0,0.3,0,0.4,0c0.1,0,0.3,0,0.4,0L32.5,20.6z M35.2,15.3l3.3-0.1
	l0.4,1.7l-0.8-1.1c0,0,0,0-0.1-0.1c0,0,0-0.1-0.1-0.1c0,0-0.1,0-0.1,0c0,0-0.1,0-0.1,0c0,0-0.1,0-0.1,0c0,0,0,0-0.1,0l0,0
	c0,0,0,0,0,0l-2.5,0.5C35.2,15.8,35.2,15.5,35.2,15.3z"/>
</svg>
